<?xml version="1.0" encoding="utf-8"?>
<!-- Generator: Adobe Illustrator 22.0.1, SVG Export Plug-In . SVG Version: 6.00 Build 0)  -->
<svg version="1.1" id="Layer_1" xmlns="http://www.w3.org/2000/svg" xmlns:xlink="http://www.w3.org/1999/xlink" x="0px" y="0px"
	 viewBox="0 0 341.9 115.5" style="enable-background:new 0 0 341.9 115.5;" xml:space="preserve">
<style type="text/css">
	.st0{fill:url(#SVGID_1_);}
	.st1{fill:#414242;}
</style>
<linearGradient id="SVGID_1_" gradientUnits="userSpaceOnUse" x1="36.7895" y1="-215.7561" x2="70.7701" y2="-249.7367" gradientTransform="matrix(1 0 0 -1 0 -175.11)">
	<stop  offset="0" style="stop-color:#D22A56"/>
	<stop  offset="0.1789" style="stop-color:#D43457"/>
	<stop  offset="0.4427" style="stop-color:#DB4958"/>
	<stop  offset="0.7573" style="stop-color:#E66759"/>
	<stop  offset="1" style="stop-color:#F48059"/>
</linearGradient>
<path class="st0" d="M20.3,58.3l32.8,32.8c0.3,0.3,0.8,0.3,1.2,0l3.7-3.7c0.3-0.3,0.3-0.8,0-1.2l-28-28c-0.3-0.3-0.3-0.8,0-1.2
	l28-28c0.3-0.3,0.3-0.8,0-1.2l-3.7-3.7c-0.3-0.3-0.8-0.3-1.2,0l-32.8,33C20,57.5,20,58,20.3,58.3z M54.3,71.7l18.3-18.3
	c0.3-0.3,0.8-0.3,1.2,0l3.7,3.7c0.3,0.3,0.3,0.8,0,1.2L59.2,76.6c-0.3,0.3-0.3,0.8,0,1.2l3.7,3.7c0.3,0.3,0.8,0.3,1.2,0l23.1-23.1
	c0.3-0.3,0.3-0.8,0-1.2L73.7,43.7c-0.3-0.3-0.8-0.3-1.2,0L54.3,62c-0.3,0.3-0.8,0.3-1.2,0l-3.7-3.7c-0.3-0.3-0.3-0.8,0-1.2
	l18.3-18.3c0.3-0.3,0.3-0.8,0-1.2L64,34c-0.3-0.3-0.8-0.3-1.2,0L39.7,57.1c-0.3,0.3-0.3,0.8,0,1.2l13.4,13.4
	C53.5,72,54,72,54.3,71.7z"/>
<g>
	<path class="st1" d="M134.6,35.7c2.2,0,3.9,2,3.5,4.2c-0.2,1.3-1.2,2.3-2.4,2.7c-2.4,0.7-4.6-1-4.6-3.4
		C131.1,37.3,132.7,35.7,134.6,35.7z"/>
	<path class="st1" d="M108.4,70.1h4c0.4,0,0.8-0.4,0.8-0.8V57.5c0-0.4,0.4-0.8,0.8-0.8H126c0.4,0,0.8-0.4,0.8-0.8v-3.6
		c0-0.4-0.4-0.8-0.8-0.8H114c-0.4,0-0.8-0.4-0.8-0.8V43c0-0.4,0.4-0.8,0.8-0.8h13.5c0.4,0,0.8-0.4,0.8-0.8v-3.7
		c0-0.4-0.4-0.8-0.8-0.8h-19.1c-0.4,0-0.8,0.4-0.8,0.8v31.6C107.6,69.8,108,70.1,108.4,70.1z"/>
	<path class="st1" d="M132.7,70.1h3.8c0.4,0,0.8-0.4,0.8-0.8V48.1c0-0.4-0.4-0.8-0.8-0.8h-3.8c-0.4,0-0.8,0.4-0.8,0.8v21.2
		C131.9,69.8,132.3,70.1,132.7,70.1z"/>
	<path class="st1" d="M276.8,35.7c2.2,0,3.9,2,3.5,4.2c-0.2,1.3-1.2,2.3-2.4,2.7c-2.4,0.7-4.6-1-4.6-3.4
		C273.3,37.3,274.9,35.7,276.8,35.7z"/>
	<path class="st1" d="M155.2,46.6c-1.9,0-3.9,0.6-5.4,2c-0.5,0.5-1.3,0.1-1.3-0.6v0c0-0.4-0.4-0.8-0.8-0.8H144
		c-0.4,0-0.8,0.4-0.8,0.8v21.2c0,0.4,0.4,0.8,0.8,0.8h3.9c0.4,0,0.8-0.4,0.8-0.8V57c0-3,1.6-5.4,4.7-5.4c3.4,0,4.7,2.2,4.7,5.1v12.7
		c0,0.4,0.4,0.8,0.8,0.8h3.9c0.4,0,0.8-0.4,0.8-0.8V55.7C163.5,50.7,160.8,46.6,155.2,46.6z"/>
	<g>
		<g>
			<path class="st1" d="M187.3,66.5V55.1c0-4.5-2.7-8.5-9.7-8.5c-5.2,0-8.7,3.1-9.5,6.7c-0.1,0.4,0.2,0.9,0.6,1l3.4,0.8
				c0.4,0.1,0.8-0.2,0.9-0.6c0.5-1.9,2-3.4,4.6-3.4c3,0,4.3,1.5,4.3,3.5c0,0.8-0.4,1.5-1.7,1.6l-5.9,0.9c-3.9,0.6-6.9,2.8-6.9,6.9
				c0,3.6,3,6.9,7.7,6.9c2.6,0,4.5-1,5.8-2.1c0.5-0.4,1.3-0.1,1.3,0.5c0,0.1,0,0.2,0,0.2c0,0.4,0.4,0.7,0.8,0.7h3.5
				c0.5,0,0.8-0.4,0.8-0.9C187.4,68.6,187.3,67.7,187.3,66.5z M182,60.7c0,4.5-2.6,5.9-5.7,5.9c-2.2,0-3.3-1.4-3.3-3
				c0-1.9,1.4-2.8,3-3.1l6-0.9V60.7z"/>
		</g>
	</g>
	<path class="st1" d="M192.7,37v32.3c0,0.4,0.4,0.8,0.8,0.8h3.9c0.4,0,0.8-0.4,0.8-0.8V37c0-0.4-0.4-0.8-0.8-0.8h-3.9
		C193,36.2,192.7,36.5,192.7,37z"/>
	<path class="st1" d="M223.1,46.1c-0.7,0.2-1.5-0.1-1.7-0.8c-0.7-1.9-2.6-3.9-6.2-3.9c-3.4,0-5.7,2.2-5.7,4.8c0,2.1,1.3,3.7,3.9,4.3
		l4.8,1c5.9,1.2,9,4.9,9,9.6c0,5.2-4.2,10.1-11.8,10.1c-7.7,0-11.6-4.5-12.6-8.9c-0.2-0.7,0.3-1.5,1-1.7l2.5-0.7
		c0.8-0.2,1.6,0.2,1.8,1c0.8,2.9,3.2,5.3,7.3,5.3c4,0,6-2,6-4.6c0-2.2-1.6-3.9-4.5-4.5l-4.7-1c-5.1-1-8.4-4.4-8.4-9.3
		c0-5.6,5.1-10.2,11.3-10.2c6.8,0,10,3.7,11.2,7.1c0.3,0.8-0.2,1.6-0.9,1.8L223.1,46.1z"/>
	<path class="st1" d="M230.3,78.2V48.7c0-0.6,0.5-1.1,1.1-1.1h3.1c0.6,0,1.1,0.5,1.1,1.1l0,1.6c0,0.1,0.1,0.1,0.2,0.1
		c1.1-1.7,3.3-3,6.2-3.3c5.7-0.5,10.6,4,11.3,9.7c1,7.9-3.4,14.1-10.6,14.1c-3.1,0-5.5-1.3-6.8-2.9c-0.1-0.1-0.2,0-0.2,0.1v10.1
		c0,0.6-0.5,1.1-1.1,1.1h-3.2C230.8,79.3,230.3,78.8,230.3,78.2z M241.8,51.9c-3.6,0-6.1,2.8-6.1,7.1c0,4.4,2.6,7.2,6.1,7.2
		c3.6,0,6.1-2.8,6.1-7.2C247.9,54.7,245.5,51.9,241.8,51.9z"/>
	<path class="st1" d="M270.8,52c0,0.5-0.4,0.9-1,0.9c-0.3,0-0.5,0-0.8,0c-4.2,0-6.1,2.4-6.1,6.7v10c0,0.5-0.4,0.9-0.9,0.9h-3.6
		c-0.5,0-0.9-0.4-0.9-0.9v-21c0-0.5,0.4-0.9,0.9-0.9h3.5c0.5,0,0.9,0.4,0.9,0.9v0c0,0.8,0.9,1.2,1.5,0.7c1.3-1.2,3.1-1.8,5.1-1.8
		c0.2,0,0.4,0,0.6,0c0.5,0,0.8,0.4,0.8,0.9V52z"/>
	<path class="st1" d="M274.2,69.2V48.7c0-0.6,0.5-1.2,1.2-1.2h3.1c0.6,0,1.2,0.5,1.2,1.2v20.5c0,0.6-0.5,1.2-1.2,1.2h-3.1
		C274.7,70.4,274.2,69.9,274.2,69.2z"/>
	<path class="st1" d="M290.1,70.4h-3.9c-0.4,0-0.8-0.4-0.8-0.8V48.4c0-0.4,0.4-0.8,0.8-0.8h3.7c0.4,0,0.8,0.4,0.8,0.8v0
		c0,0.7,0.8,1,1.3,0.6c1.5-1.4,3.5-2,5.4-2c5.6,0,8.2,4,8.2,9v13.6c0,0.4-0.4,0.8-0.8,0.8h-3.9c-0.4,0-0.8-0.4-0.8-0.8V56.9
		c0-2.8-1.3-5.1-4.7-5.1c-3.1,0-4.7,2.4-4.7,5.4v12.4C290.9,70,290.5,70.4,290.1,70.4z"/>
	<path class="st1" d="M319.1,47.6h2.7c0.6,0,1,0.5,1,1v2.8c0,0.6-0.5,1-1,1h-2.7c-0.6,0-1,0.5-1,1V63c0,2,0.9,2.9,2.9,2.9
		c0.3,0,0.5,0,0.8,0c0.6-0.1,1.1,0.4,1.1,1v2.6c0,0.5-0.3,0.9-0.8,1c-0.6,0.1-1.4,0.3-2.5,0.3c-4.2,0-6.8-2.5-6.8-6.8V53.4
		c0-0.6-0.5-1-1-1h-2.2c-0.6,0-1-0.5-1-1v-3.8h1.2c2.4,0,3.5-1.5,3.5-3.6v-2.4c0-0.6,0.5-1,1-1h2.9c0.6,0,1,0.5,1,1v4.9
		C318.1,47.1,318.5,47.6,319.1,47.6z"/>
</g>
</svg>
