<?xml version="1.0" encoding="utf-8"?>
<!-- Generator: Adobe Illustrator 19.2.1, SVG Export Plug-In . SVG Version: 6.00 Build 0)  -->
<svg version="1.1" id="Layer_1" xmlns="http://www.w3.org/2000/svg" xmlns:xlink="http://www.w3.org/1999/xlink" x="0px" y="0px"
	 viewBox="0 0 700.2 238" style="enable-background:new 0 0 700.2 238;" xml:space="preserve">
<style type="text/css">
	.st0{fill:#BEC6D2;}
	.st1{fill:url(#SVGID_1_);}
	.st2{fill:url(#SVGID_2_);}
	.st3{fill:url(#SVGID_3_);}
</style>
<g>
	<path class="st0" d="M214.6,156.5V81.1h5.7v75.4H214.6z"/>
	<path class="st0" d="M250.2,81.1l50.7,62.3V81.1h5.7v75.4h-2.3l-50.8-62.2v62.2h-5.8V81.1H250.2z"/>
	<path class="st0" d="M384.3,96.3c-5.5-8.6-14.3-9.8-22.8-9.9c-8.8,0-22.8,3.1-22.8,14.8c0,9.3,10.3,11.5,23,13.8
		c14.5,2.7,29.6,5.2,29.6,21c-0.1,16.5-17.2,20.5-29.8,20.5c-11.7,0-25.1-4.7-30.9-15.9l5.2-2.5c4.6,8.9,16.5,13.3,25.7,13.3
		s24-2.5,24-15.5c0.1-11-12.4-13.4-24.8-15.7c-13.8-2.6-27.9-5.3-27.9-18.8c-0.3-15.5,16.3-20.3,28.6-20.3
		c10.8,0,20.1,1.7,27.6,12.4L384.3,96.3z"/>
	<path class="st0" d="M414.4,156.5V81.1h5.7v75.4H414.4z"/>
	<path class="st0" d="M472.3,86.4h-27.2v-5.2h60.3v5.2h-27.2v70.1h-5.8V86.4z"/>
	<path class="st0" d="M532.9,115.9H577v5.3h-44.2v29.7h47.6v5.6h-53.3V81.1h52v5.5h-46.3V115.9z"/>
	<path class="st0" d="M655.2,95.9c-5.5-8.6-14.3-9.9-22.8-10c-8.8,0-22.8,3.2-22.8,14.9c0,9.4,10.3,11.6,23,13.9
		c14.5,2.7,29.6,5.3,29.6,21.1c-0.1,16.6-17.2,20.6-29.8,20.6c-11.7,0-25.1-4.7-30.9-16l5.2-2.5c4.6,8.9,16.5,13.3,25.7,13.3
		c9.3,0,24-2.5,24-15.6c0.1-11-12.4-13.5-24.8-15.8c-13.8-2.6-27.9-5.4-27.9-18.9c-0.3-15.6,16.3-20.4,28.6-20.4
		c10.8,0,20.1,1.7,27.6,12.5L655.2,95.9z"/>
</g>
<g>
	<linearGradient id="SVGID_1_" gradientUnits="userSpaceOnUse" x1="72.2093" y1="179.4447" x2="142.1415" y2="58.3186">
		<stop  offset="0" style="stop-color:#50C0DA"/>
		<stop  offset="1" style="stop-color:#60C08B"/>
	</linearGradient>
	<path class="st1" d="M107.1,199.6l-68.5-40.7V78.1l68.8-39.7l69,39.7v80.8L107.1,199.6z M44.4,155.5l62.6,37.2l63.3-37.2v-74
		l-63-36.3L44.4,81.5V155.5z"/>
	<g>
		<linearGradient id="SVGID_2_" gradientUnits="userSpaceOnUse" x1="76.3697" y1="130.6738" x2="138.4897" y2="130.6738">
			<stop  offset="0" style="stop-color:#3BB98B"/>
			<stop  offset="1" style="stop-color:#8ED0BA"/>
		</linearGradient>
		<polygon class="st2" points="82.1,157.3 82.1,116.7 129.5,157.3 138.5,157.3 76.4,104 76.4,157.3 		"/>
		<linearGradient id="SVGID_3_" gradientUnits="userSpaceOnUse" x1="76.4334" y1="107.3373" x2="138.4897" y2="107.3373">
			<stop  offset="0" style="stop-color:#9DDAE9"/>
			<stop  offset="5.750054e-002" style="stop-color:#90D7E7"/>
			<stop  offset="0.2497" style="stop-color:#6BCDE3"/>
			<stop  offset="0.442" style="stop-color:#4EC5DF"/>
			<stop  offset="0.6322" style="stop-color:#3ABFDC"/>
			<stop  offset="0.8194" style="stop-color:#2DBCDB"/>
			<stop  offset="1" style="stop-color:#29BBDA"/>
		</linearGradient>
		<path class="st3" d="M132.7,80.7v40.6L85.4,80.6h-9l62.1,53.4V80.7H132.7z"/>
	</g>
</g>
</svg>
